<svg height="50" width="50" fill="#fff" xmlns="http://www.w3.org/2000/svg" viewBox="0 0 100 100"><path d="M47.556 56.161s1.01 2.015 3.307 2.015c2.295 0 3.307-2.015 3.307-2.015h-6.614z"/><path d="M85.932 77.682c-11.738-6.164-16.367-9.103-23.154-14.16l-.981-.773a19.196 19.196 0 002.021-1.825c2.752-2.871 4.82-6.764 6.047-11.351l.129.013c.119.012.242.018.365.018 1.225 0 2.404-.617 3.236-1.695.65-.841 1.072-1.942 1.188-3.101l.531-5.33c.121-1.215-.1-2.423-.619-3.403-.682-1.284-1.824-2.095-3.137-2.226l-.588-.057c-.004-.276-.004-.556-.006-.835.715-5.333 1.781-17.62-2.525-23.192-5.584-7.227-10.789-8.268-17.575-8.268-6.788 0-11.992 1.041-17.577 8.268-3.384 4.38-3.449 12.909-2.976 18.948l.012.546c.033 1.573.066 3.088.043 4.542l-.502.05c-1.312.13-2.455.941-3.137 2.225-.52.979-.739 2.188-.618 3.403l.53 5.33c.116 1.159.538 2.26 1.188 3.102.833 1.077 2.012 1.694 3.238 1.694.122 0 .245-.006.366-.018l.042-.005c1.227 4.585 3.297 8.479 6.049 11.348.438.455.892.885 1.361 1.286l-1.658 1.309c-6.787 5.058-11.417 7.996-23.155 14.16l-.65.342V100h27.091l-3.776-12.915c1.03 1.36 2.144 2.571 3.257 3.518l1.215 1.035.676-1.444c2.182-4.659 6.303-9.728 8.119-11.852 1.816 2.122 5.934 7.188 8.119 11.852l.677 1.444 1.215-1.035c1.112-.946 2.227-2.156 3.257-3.518L59.491 100h27.091V78.023l-.65-.341zM59.68 70.368c-1.92 2.319-5.178 3.958-9.68 4.88-4.502-.922-7.76-2.561-9.68-4.88-1.585-1.914-1.798-3.772-1.766-4.802.771-.574 1.572-1.177 2.411-1.812 2.854 1.813 6.144 2.759 9.701 2.759 3.253 0 6.281-.792 8.958-2.312.627.474 1.231.928 1.82 1.366.035 1.029-.18 2.887-1.764 4.801zm-.473-15.276c-.335 2.401-3.234 4.839-8.344 4.839-5.112 0-8.01-2.438-8.345-4.839-.334-2.403 3.286-6.859 8.345-6.859s8.678 4.455 8.344 6.859zM36.511 18.139c3.695-.431 9.055 1.478 14.352 1.478 5.296 0 10.655-1.909 14.352-1.478 1.549.18 2.289 6.484 2.816 12.017-1.533-.746-3.541-1.677-6.712-1.677-5.657 0-6.144 2.497-10.653 2.497s-4.996-2.497-10.652-2.497c-3.266 0-5.296.986-6.847 1.742.477-5.481 1.333-11.848 3.344-12.082zm-5.323 29.022a1.323 1.323 0 01-.125.006c-.974 0-1.856-1.129-2.004-2.602l-.53-5.33c-.152-1.536.552-2.864 1.574-2.965l2.153-.215c.287 1.774 1.238 7.665 7.521 7.665 5.253 0 7.602-3.691 8.485-5.743.882-2.053.361-4.117 2.402-4.117 2.041 0 1.521 2.064 2.402 4.117.883 2.052 3.234 5.743 8.486 5.743 6.293 0 7.236-5.907 7.521-7.671l.029.001 2.211.22c1.021.102 1.727 1.429 1.574 2.965l-.531 5.33c-.146 1.473-1.029 2.602-2.002 2.602-.041 0-.084-.002-.125-.006l-2.211-.219c-.014-.001-.027-.005-.041-.007-.703 3.502-1.908 6.659-3.574 9.285-.686.736-1.297 1.336-1.688 1.602-.686-3.268-2.846-11.487-11.856-11.487-9.011 0-11.171 8.219-11.856 11.487-.6-.406-1.71-1.594-2.82-2.862-1.284-2.352-2.236-5.059-2.832-8.013l-2.163.214zm9.239 40.506c-2.964-3.086-6.37-8.706-6.273-13.917.044-2.321.773-4.357 2.176-6.082.276 1.265.879 2.759 2.116 4.253 2.009 2.426 5.133 4.206 9.304 5.304-1.824 2.162-5.093 6.276-7.323 10.442zm19.147 0c-2.23-4.166-5.5-8.28-7.324-10.442 4.172-1.098 7.296-2.878 9.305-5.304 1.236-1.494 1.84-2.988 2.117-4.253 1.4 1.725 2.131 3.761 2.174 6.082.097 5.211-3.309 10.831-6.272 13.917z"/><circle cx="50.863" cy="88.11" r="1.848"/><circle cx="50.863" cy="98.151" r="1.849"/></svg>